<?xml version="1.0" encoding="UTF-8"?><svg id="Layer_1" xmlns="http://www.w3.org/2000/svg" viewBox="0 0 140.99 56.03"><path d="M31.33,9.67c-2.34-4.82-7.5-7.96-12.65-7.96h-4.83c2.03,1.71,3.74,3.73,4.83,5.91,6.65,13.33,13.36,26.63,20.04,39.95,2.18,3.73,6,6.67,12.24,6.67h4.83c-1.4-.93-3.12-2.7-5.3-6.44-6.4-12.84-13.08-25.16-19.16-38.15M55.77,7.47c.12-.68,1.19-2.32,1.58-2.85,1.25-1.71,3.15-2.73,3.04-2.73h-4.61s-4.61,0-4.61,0c.12,0,1.79,1.02,3.04,2.73.35.48,1.49,2.24,1.58,2.85ZM85.22,0c4.99,0,10.33,3.42,12.98,8.71l18.09,36.72c3.74,7.47,7.48,9.8,13.25,10.58h-14.03c-6.39,0-10.6-2.96-13.25-7.94l-6.55-13.23h-17.11v-1.71h16.33l-12-23.31c-1.97-3.44-3.17-5.68-7.5-7.89-3.41-1.74-7.5-1.77-11.03-.38-2.25.89-4.27,2.35-5.73,4.3-2.58,3.45-2.74,5.71-2.89,8.17-.01-3.58-1.17-6.31-3.47-8.92C48.97,1.3,44.65.18,41.96,0h13.84c9.81,0,19.61,0,29.42,0ZM13.84,48.84c-.12.68-1.18,2.32-1.58,2.85-1.25,1.71-2.92,2.73-3.04,2.73h4.61s4.61,0,4.61,0c-.12,0-1.78-1.02-3.04-2.73-.35-.48-1.49-2.24-1.58-2.85ZM13.84,56.03h13.84c-2.69-.18-6.94-1.04-10.32-4.82-3.38-3.79-3.52-8.98-3.52-8.98,0,0-.14,5.19-3.52,8.98-3.38,3.79-7.63,4.64-10.32,4.82h13.84ZM107.75,6.87c3.47,4.07,8.41,1.83,9.02-2.65.59,5.54-6.56,7.49-9.02,2.65ZM115.84,8.4c0,.42,1.04.73,1.05-.63-.35.53-.4.57-.69.66-.29.1-.36-.21-.36-.03ZM114.97,9.67l17.7.05v25.65c-.35-1.24-.53-2.12-.71-3.01V12.73l-.71.35v16.28c-.35-.71-1.07-2.83-1.59-4.07v-12.56l-.71.35v10.61c-.53-.88-.89-1.59-1.59-2.3v-8.67l-.71.35v7.08c-.89-.88-1.42-1.59-2.3-2.3v-5.13l-1.6.35v3.54l-1.42-.88v-3.01l-1.59.35v1.77l-1.42-.53v-1.59l-.89.35v1.06l-.71-.35v-1.06l-.89.35v.53l-.71-.18v-1.06h16.84v-.35c0-2.15-14.68-2.18-16.99-2.35ZM108.5,5.01c.64,1.66,1.87,2.21,3.1,2.19,1.19-.02,2.39-.58,3.05-1.88-.83,3.55-5.67,3.22-6.15-.3ZM109.17,4.36c.58-1.5,1.68-2.01,2.79-2.03,1.15-.02,2.31.5,2.95,1.75-.77-3.31-5.29-3-5.74.28ZM110.59,4.33s.25.62.7.62c.45,0,.57-.19.75-.31.18-.12.4-.26.69-.19.29.07.43.25.54.36-.03-.16-.07-.59-.5-.7-.42-.11-.67.07-.87.21-.2.14-.36.27-.67.28-.31,0-.65-.28-.65-.28ZM140.99,6.91c-3.47,4.07-8.41,1.83-9.02-2.65-.59,5.54,6.56,7.49,9.02,2.65ZM140.24,5.05c-.64,1.66-1.87,2.21-3.1,2.19-1.19-.02-2.39-.58-3.05-1.88.83,3.55,5.67,3.22,6.15-.3ZM139.57,4.4c-.58-1.5-1.68-2.01-2.8-2.03-1.15-.02-2.31.5-2.95,1.75.77-3.31,5.29-3,5.74.28ZM138.15,4.37s-.25.62-.7.62-.57-.19-.75-.31c-.18-.12-.4-.26-.69-.19-.29.07-.43.25-.54.36.03-.16.07-.59.5-.7.42-.11.67.07.87.21.2.14.36.27.66.28.31,0,.65-.28.65-.28ZM117.7,8.4c0,.42,1.04.73,1.05-.63-.35.53-.4.57-.69.66-.29.1-.36-.21-.36-.03ZM119.6,8.4c0,.42,1.04.73,1.05-.63-.35.53-.4.57-.69.66-.29.1-.36-.21-.36-.03ZM121.46,8.4c0,.42,1.04.73,1.05-.63-.35.53-.4.57-.69.66-.29.1-.36-.21-.36-.03ZM123.36,8.4c0,.42,1.04.73,1.05-.63-.35.53-.4.57-.69.66-.29.1-.36-.21-.36-.03ZM125.23,8.4c0,.42,1.04.73,1.05-.63-.35.53-.4.57-.69.66-.29.1-.36-.21-.36-.03ZM127.12,8.4c0,.42,1.03.73,1.05-.63-.35.53-.4.57-.69.66-.29.1-.36-.21-.36-.03ZM129.03,8.4c0,.42,1.04.73,1.05-.63-.35.53-.4.57-.69.66-.29.1-.36-.21-.36-.03ZM130.92,8.4c0,.42,1.04.73,1.05-.63-.35.53-.4.57-.69.66-.29.1-.36-.21-.36-.03ZM107.74,2.86c.3-.71,1.26-2.76,4.42-2.75,3.16,0,8.6,1.81,12.32,1.81s9.36-1.79,11.95-1.81c2.59-.02,3.47,1.13,4.19,2.12-1.77-1.06-2.25-1.42-4.07-1.42s-7.41,2.33-11.98,2.34c-4.57,0-10.27-2.44-12.34-2.36-2.07.08-3.27.81-4.5,2.08ZM5.9,0h14.19c4.99.16,10.09,3.5,12.59,8.79,5.84,12.01,12.23,24.08,18.28,36.22,1.5,3.06,3.41,6.1,6.09,7.97,1.93,1.35,4.82,2.51,7.99,2.46,2.01-.03,6.44-.35,10.16-4.51,3.72-4.16,3.36-8.32,3.4-9.14,0,2.74.14,5.19,3.52,8.98,3.38,3.79,7.63,5.07,10.32,5.25h-42.42c-6.39,0-10.6-2.96-13.1-7.94-6.63-12.76-12.95-25.82-19.3-38.73-2.12-3.49-3.11-5.9-7.66-8-1.13-.52-2.43-.83-4.08-1.36Z" fill="#fff" fill-rule="evenodd" stroke-width="0"/></svg>